<svg height="2926" width="720" xmlns="http://www.w3.org/2000/svg">
<rect height="2926" fill="#555" width="720"></rect>
<text fill="#7f7" font-family="Courier New" font-size="12" xml:space="preserve">
<tspan x="10" y="26">15 megabytes installed</tspan>
<tspan x="10" y="42"></tspan>
<tspan x="10" y="58">node_modules</tspan>
<tspan x="10" y="74">└─┬ console-io@3.0.11 </tspan>
<tspan x="10" y="90">  ├── currify@2.0.3 </tspan>
<tspan x="10" y="106">  ├─┬ debug@2.6.4 </tspan>
<tspan x="10" y="122">  │ └── ms@0.7.3 </tspan>
<tspan x="10" y="138">  ├─┬ express@4.15.2 </tspan>
<tspan x="10" y="154">  │ ├─┬ accepts@1.3.3 </tspan>
<tspan x="10" y="170">  │ │ ├─┬ mime-types@2.1.15 </tspan>
<tspan x="10" y="186">  │ │ │ └── mime-db@1.27.0 </tspan>
<tspan x="10" y="202">  │ │ └── negotiator@0.6.1 </tspan>
<tspan x="10" y="218">  │ ├── array-flatten@1.1.1 </tspan>
<tspan x="10" y="234">  │ ├── content-disposition@0.5.2 </tspan>
<tspan x="10" y="250">  │ ├── content-type@1.0.2 </tspan>
<tspan x="10" y="266">  │ ├── cookie@0.3.1 </tspan>
<tspan x="10" y="282">  │ ├── cookie-signature@1.0.6 </tspan>
<tspan x="10" y="298">  │ ├─┬ debug@2.6.1 </tspan>
<tspan x="10" y="314">  │ │ └── ms@0.7.2 </tspan>
<tspan x="10" y="330">  │ ├── depd@1.1.0 </tspan>
<tspan x="10" y="346">  │ ├── encodeurl@1.0.1 </tspan>
<tspan x="10" y="362">  │ ├── escape-html@1.0.3 </tspan>
<tspan x="10" y="378">  │ ├── etag@1.8.0 </tspan>
<tspan x="10" y="394">  │ ├─┬ finalhandler@1.0.2 </tspan>
<tspan x="10" y="410">  │ │ └── unpipe@1.0.0 </tspan>
<tspan x="10" y="426">  │ ├── fresh@0.5.0 </tspan>
<tspan x="10" y="442">  │ ├── merge-descriptors@1.0.1 </tspan>
<tspan x="10" y="458">  │ ├── methods@1.1.2 </tspan>
<tspan x="10" y="474">  │ ├─┬ on-finished@2.3.0 </tspan>
<tspan x="10" y="490">  │ │ └── ee-first@1.1.1 </tspan>
<tspan x="10" y="506">  │ ├── parseurl@1.3.1 </tspan>
<tspan x="10" y="522">  │ ├── path-to-regexp@0.1.7 </tspan>
<tspan x="10" y="538">  │ ├─┬ proxy-addr@1.1.4 </tspan>
<tspan x="10" y="554">  │ │ ├── forwarded@0.1.0 </tspan>
<tspan x="10" y="570">  │ │ └── ipaddr.js@1.3.0 </tspan>
<tspan x="10" y="586">  │ ├── qs@6.4.0 </tspan>
<tspan x="10" y="602">  │ ├── range-parser@1.2.0 </tspan>
<tspan x="10" y="618">  │ ├─┬ send@0.15.1 </tspan>
<tspan x="10" y="634">  │ │ ├── debug@2.6.1 </tspan>
<tspan x="10" y="650">  │ │ ├── destroy@1.0.4 </tspan>
<tspan x="10" y="666">  │ │ ├── http-errors@1.6.1 </tspan>
<tspan x="10" y="682">  │ │ ├── mime@1.3.4 </tspan>
<tspan x="10" y="698">  │ │ └── ms@0.7.2 </tspan>
<tspan x="10" y="714">  │ ├── serve-static@1.12.1 </tspan>
<tspan x="10" y="730">  │ ├── setprototypeof@1.0.3 </tspan>
<tspan x="10" y="746">  │ ├── statuses@1.3.1 </tspan>
<tspan x="10" y="762">  │ ├─┬ type-is@1.6.15 </tspan>
<tspan x="10" y="778">  │ │ └── media-typer@0.3.0 </tspan>
<tspan x="10" y="794">  │ ├── utils-merge@1.0.0 </tspan>
<tspan x="10" y="810">  │ └── vary@1.1.1 </tspan>
<tspan x="10" y="826">  ├─┬ join-io@1.4.5 </tspan>
<tspan x="10" y="842">  │ ├── execon@1.2.9 </tspan>
<tspan x="10" y="858">  │ ├─┬ files-io@1.2.8 </tspan>
<tspan x="10" y="874">  │ │ ├── extendy@1.0.1 </tspan>
<tspan x="10" y="890">  │ │ ├── itype@2.0.3 </tspan>
<tspan x="10" y="906">  │ │ └── pipe-io@2.0.2 </tspan>
<tspan x="10" y="922">  │ ├─┬ minify@2.0.13 </tspan>
<tspan x="10" y="938">  │ │ ├─┬ clean-css@3.4.25 </tspan>
<tspan x="10" y="954">  │ │ │ ├─┬ commander@2.8.1 </tspan>
<tspan x="10" y="970">  │ │ │ │ └── graceful-readlink@1.0.1 </tspan>
<tspan x="10" y="986">  │ │ │ └─┬ source-map@0.4.4 </tspan>
<tspan x="10" y="1002">  │ │ │   └── amdefine@1.0.1 </tspan>
<tspan x="10" y="1018">  │ │ ├── css-b64-images@0.2.5 </tspan>
<tspan x="10" y="1034">  │ │ ├─┬ html-minifier@3.4.3 </tspan>
<tspan x="10" y="1050">  │ │ │ ├─┬ camel-case@3.0.0 </tspan>
<tspan x="10" y="1066">  │ │ │ │ ├─┬ no-case@2.3.1 </tspan>
<tspan x="10" y="1082">  │ │ │ │ │ └── lower-case@1.1.4 </tspan>
<tspan x="10" y="1098">  │ │ │ │ └── upper-case@1.1.3 </tspan>
<tspan x="10" y="1114">  │ │ │ ├─┬ clean-css@4.0.12 </tspan>
<tspan x="10" y="1130">  │ │ │ │ └── source-map@0.5.6 </tspan>
<tspan x="10" y="1146">  │ │ │ ├── commander@2.9.0 </tspan>
<tspan x="10" y="1162">  │ │ │ ├── he@1.1.1 </tspan>
<tspan x="10" y="1178">  │ │ │ ├─┬ ncname@1.0.0 </tspan>
<tspan x="10" y="1194">  │ │ │ │ └── xml-char-classes@1.0.0 </tspan>
<tspan x="10" y="1210">  │ │ │ ├── param-case@2.1.1 </tspan>
<tspan x="10" y="1226">  │ │ │ └── relateurl@0.2.7 </tspan>
<tspan x="10" y="1242">  │ │ ├─┬ tomas@1.0.2 </tspan>
<tspan x="10" y="1258">  │ │ │ ├── checkup@1.3.0 </tspan>
<tspan x="10" y="1274">  │ │ │ ├─┬ ischanged@1.0.18 </tspan>
<tspan x="10" y="1290">  │ │ │ │ ├── readjson@1.1.3 </tspan>
<tspan x="10" y="1306">  │ │ │ │ ├── timem@1.1.2 </tspan>
<tspan x="10" y="1322">  │ │ │ │ └── writejson@1.1.1 </tspan>
<tspan x="10" y="1338">  │ │ │ └─┬ mkdirp@0.5.1 </tspan>
<tspan x="10" y="1354">  │ │ │   └── minimist@0.0.8 </tspan>
<tspan x="10" y="1370">  │ │ └─┬ uglify-js@2.8.22 </tspan>
<tspan x="10" y="1386">  │ │   ├── source-map@0.5.6 </tspan>
<tspan x="10" y="1402">  │ │   ├── uglify-to-browserify@1.0.2 </tspan>
<tspan x="10" y="1418">  │ │   └─┬ yargs@3.10.0 </tspan>
<tspan x="10" y="1434">  │ │     ├── camelcase@1.2.1 </tspan>
<tspan x="10" y="1450">  │ │     ├─┬ cliui@2.1.0 </tspan>
<tspan x="10" y="1466">  │ │     │ ├─┬ center-align@0.1.3 </tspan>
<tspan x="10" y="1482">  │ │     │ │ ├─┬ align-text@0.1.4 </tspan>
<tspan x="10" y="1498">  │ │     │ │ │ ├─┬ kind-of@3.2.0 </tspan>
<tspan x="10" y="1514">  │ │     │ │ │ │ └── is-buffer@1.1.5 </tspan>
<tspan x="10" y="1530">  │ │     │ │ │ ├── longest@1.0.1 </tspan>
<tspan x="10" y="1546">  │ │     │ │ │ └── repeat-string@1.6.1 </tspan>
<tspan x="10" y="1562">  │ │     │ │ └── lazy-cache@1.0.4 </tspan>
<tspan x="10" y="1578">  │ │     │ ├── right-align@0.1.3 </tspan>
<tspan x="10" y="1594">  │ │     │ └── wordwrap@0.0.2 </tspan>
<tspan x="10" y="1610">  │ │     ├── decamelize@1.2.0 </tspan>
<tspan x="10" y="1626">  │ │     └── window-size@0.1.0 </tspan>
<tspan x="10" y="1642">  │ └── ponse@1.6.0 </tspan>
<tspan x="10" y="1658">  ├── mollify@1.0.8 </tspan>
<tspan x="10" y="1674">  ├── rendy@1.1.0 </tspan>
<tspan x="10" y="1690">  ├─┬ socket.io@1.7.3 </tspan>
<tspan x="10" y="1706">  │ ├─┬ debug@2.3.3 </tspan>
<tspan x="10" y="1722">  │ │ └── ms@0.7.2 </tspan>
<tspan x="10" y="1738">  │ ├─┬ engine.io@1.8.3 </tspan>
<tspan x="10" y="1754">  │ │ ├── base64id@1.0.0 </tspan>
<tspan x="10" y="1770">  │ │ ├─┬ debug@2.3.3 </tspan>
<tspan x="10" y="1786">  │ │ │ └── ms@0.7.2 </tspan>
<tspan x="10" y="1802">  │ │ ├─┬ engine.io-parser@1.3.2 </tspan>
<tspan x="10" y="1818">  │ │ │ ├── after@0.8.2 </tspan>
<tspan x="10" y="1834">  │ │ │ ├── arraybuffer.slice@0.0.6 </tspan>
<tspan x="10" y="1850">  │ │ │ ├── base64-arraybuffer@0.1.5 </tspan>
<tspan x="10" y="1866">  │ │ │ ├── blob@0.0.4 </tspan>
<tspan x="10" y="1882">  │ │ │ └── wtf-8@1.0.0 </tspan>
<tspan x="10" y="1898">  │ │ └─┬ ws@1.1.2 </tspan>
<tspan x="10" y="1914">  │ │   ├── options@0.0.6 </tspan>
<tspan x="10" y="1930">  │ │   └── ultron@1.0.2 </tspan>
<tspan x="10" y="1946">  │ ├─┬ has-binary@0.1.7 </tspan>
<tspan x="10" y="1962">  │ │ └── isarray@0.0.1 </tspan>
<tspan x="10" y="1978">  │ ├── object-assign@4.1.0 </tspan>
<tspan x="10" y="1994">  │ ├─┬ socket.io-adapter@0.5.0 </tspan>
<tspan x="10" y="2010">  │ │ └─┬ debug@2.3.3 </tspan>
<tspan x="10" y="2026">  │ │   └── ms@0.7.2 </tspan>
<tspan x="10" y="2042">  │ ├─┬ socket.io-client@1.7.3 </tspan>
<tspan x="10" y="2058">  │ │ ├── backo2@1.0.2 </tspan>
<tspan x="10" y="2074">  │ │ ├── component-bind@1.0.0 </tspan>
<tspan x="10" y="2090">  │ │ ├── component-emitter@1.2.1 </tspan>
<tspan x="10" y="2106">  │ │ ├─┬ debug@2.3.3 </tspan>
<tspan x="10" y="2122">  │ │ │ └── ms@0.7.2 </tspan>
<tspan x="10" y="2138">  │ │ ├─┬ engine.io-client@1.8.3 </tspan>
<tspan x="10" y="2154">  │ │ │ ├── component-emitter@1.2.1 </tspan>
<tspan x="10" y="2170">  │ │ │ ├── component-inherit@0.0.3 </tspan>
<tspan x="10" y="2186">  │ │ │ ├─┬ debug@2.3.3 </tspan>
<tspan x="10" y="2202">  │ │ │ │ └── ms@0.7.2 </tspan>
<tspan x="10" y="2218">  │ │ │ ├── has-cors@1.1.0 </tspan>
<tspan x="10" y="2234">  │ │ │ ├── parsejson@0.0.3 </tspan>
<tspan x="10" y="2250">  │ │ │ ├── parseqs@0.0.5 </tspan>
<tspan x="10" y="2266">  │ │ │ ├── xmlhttprequest-ssl@1.5.3 </tspan>
<tspan x="10" y="2282">  │ │ │ └── yeast@0.1.2 </tspan>
<tspan x="10" y="2298">  │ │ ├── indexof@0.0.1 </tspan>
<tspan x="10" y="2314">  │ │ ├── object-component@0.0.3 </tspan>
<tspan x="10" y="2330">  │ │ ├─┬ parseuri@0.0.5 </tspan>
<tspan x="10" y="2346">  │ │ │ └─┬ better-assert@1.0.2 </tspan>
<tspan x="10" y="2362">  │ │ │   └── callsite@1.0.0 </tspan>
<tspan x="10" y="2378">  │ │ └── to-array@0.1.4 </tspan>
<tspan x="10" y="2394">  │ └─┬ socket.io-parser@2.3.1 </tspan>
<tspan x="10" y="2410">  │   ├── component-emitter@1.1.2 </tspan>
<tspan x="10" y="2426">  │   ├─┬ debug@2.2.0 </tspan>
<tspan x="10" y="2442">  │   │ └── ms@0.7.1 </tspan>
<tspan x="10" y="2458">  │   └── json3@3.3.2 </tspan>
<tspan x="10" y="2474">  ├─┬ spawnify@3.0.1 </tspan>
<tspan x="10" y="2490">  │ ├─┬ glob@7.1.1 </tspan>
<tspan x="10" y="2506">  │ │ ├── fs.realpath@1.0.0 </tspan>
<tspan x="10" y="2522">  │ │ ├─┬ inflight@1.0.6 </tspan>
<tspan x="10" y="2538">  │ │ │ └── wrappy@1.0.2 </tspan>
<tspan x="10" y="2554">  │ │ ├── inherits@2.0.3 </tspan>
<tspan x="10" y="2570">  │ │ ├─┬ minimatch@3.0.3 </tspan>
<tspan x="10" y="2586">  │ │ │ └─┬ brace-expansion@1.1.7 </tspan>
<tspan x="10" y="2602">  │ │ │   ├── balanced-match@0.4.2 </tspan>
<tspan x="10" y="2618">  │ │ │   └── concat-map@0.0.1 </tspan>
<tspan x="10" y="2634">  │ │ ├── once@1.4.0 </tspan>
<tspan x="10" y="2650">  │ │ └── path-is-absolute@1.0.1 </tspan>
<tspan x="10" y="2666">  │ ├── try-catch@1.0.0 </tspan>
<tspan x="10" y="2682">  │ ├── untildify@2.1.0 </tspan>
<tspan x="10" y="2698">  │ └─┬ win32@1.0.2 </tspan>
<tspan x="10" y="2714">  │   ├── iconv-lite@0.4.16 </tspan>
<tspan x="10" y="2730">  │   ├── pullout@1.0.2 </tspan>
<tspan x="10" y="2746">  │   └─┬ through2@2.0.3 </tspan>
<tspan x="10" y="2762">  │     ├─┬ readable-stream@2.2.9 </tspan>
<tspan x="10" y="2778">  │     │ ├── buffer-shims@1.0.0 </tspan>
<tspan x="10" y="2794">  │     │ ├── core-util-is@1.0.2 </tspan>
<tspan x="10" y="2810">  │     │ ├── isarray@1.0.0 </tspan>
<tspan x="10" y="2826">  │     │ ├── process-nextick-args@1.0.7 </tspan>
<tspan x="10" y="2842">  │     │ ├── string_decoder@1.0.0 </tspan>
<tspan x="10" y="2858">  │     │ └── util-deprecate@1.0.2 </tspan>
<tspan x="10" y="2874">  │     └── xtend@4.0.1 </tspan>
<tspan x="10" y="2890">  └─┬ tildify@1.2.0 </tspan>
<tspan x="10" y="2906">    └── os-homedir@1.0.2</tspan>
</text>
</svg>
